<svg width="50" height="50" viewBox="0 0 50 50" fill="none" xmlns="http://www.w3.org/2000/svg">
<rect width="50" height="50" rx="10" fill="#4199E1"/>
<path d="M23.1435 32.41C22.9892 32.3694 22.9288 32.354 22.8684 32.3376C20.9149 31.8061 19.6801 30.0767 19.0949 27.3581C18.7302 25.6635 19.393 24.4156 20.6079 24.3334C21.6026 24.266 22.2835 25.1025 22.8856 26.0758C23.6618 27.3307 24.3732 28.6706 25.1356 29.9443C26.2332 31.7779 27.5264 32.9586 29.2958 32.5942C30.8824 32.2674 32.2651 31.3359 33.4682 29.8027C33.6491 29.5723 33.8474 29.3715 34.0379 29.1569L33.9179 28.9498C32.9079 29.4087 31.8779 29.5629 30.8254 29.4855C29.2329 29.3683 27.7155 28.8818 26.3577 27.6027C25.1188 26.4354 24.2051 24.8712 23.7707 22.782C23.4199 21.0943 24.1379 19.9136 25.3334 20.1576C25.8061 20.254 26.2039 20.5654 26.561 21.0071C26.8518 21.3663 27.1307 21.7471 27.4273 22.0956C28.8226 23.7359 30.7724 23.8271 32.5436 22.0462C29.6317 22.0268 27.6507 19.6835 25.9106 16.7139C25.2296 15.5515 24.5648 14.3684 23.8697 13.2245C22.5248 11.0109 21.0328 9.06071 18.9898 8.39545C16.3801 7.54557 13.8607 8.10102 11.4424 9.72138C10.9602 10.0444 10.4971 10.42 10 11.0253C10.2461 11.0253 10.3804 11.0297 10.5143 11.0247C11.7336 10.9787 12.6473 11.7714 13.3063 13.2305C13.7859 14.2924 14.0119 15.4933 14.1841 16.7289C14.4398 18.5624 14.3075 20.4318 14.4551 22.2738C14.8346 27.0092 16.4889 30.3138 19.5692 32.0059C20.6988 32.6266 21.8573 32.8332 23.1435 32.41ZM15.3588 10.8085C14.8721 10.9881 14.4831 10.7007 14.0823 10.1072C14.7687 9.85699 15.3741 9.75998 16.0246 9.72258C15.9715 10.3404 15.7224 10.6745 15.3588 10.8085ZM31.3082 38.4613C31.2658 38.0055 30.9996 37.8047 30.7903 37.5663C29.8644 36.512 28.7816 36.1387 27.6336 36.1077C26.9485 36.0893 26.2705 36.0145 25.6244 35.6631C25.3282 35.5021 24.997 35.2952 25.0045 34.7354C25.012 34.1673 25.3498 34.0067 25.6573 33.8723C25.909 33.7623 26.1688 33.6921 26.4553 33.5941C25.7274 32.9116 25.0164 32.817 24.0689 33.3745C22.5774 34.2517 21.107 34.1477 19.6202 33.3623C18.7808 32.919 18.0358 32.2231 17.2602 31.6069L17.239 31.6283L17.2591 31.6079C17.2399 31.5223 17.2052 31.5201 17.1606 31.5679L17.2215 31.6459C17.8647 33.1882 18.7337 34.4292 19.7154 35.4897C21.6059 37.5319 23.6709 38.7498 26.0871 38.2093C26.8682 38.0342 27.6533 37.8998 28.4409 37.8065C29.4277 37.6899 30.3679 38.0961 31.3082 38.4613ZM26.7528 16.3354C26.7006 16.28 26.6504 16.141 26.5438 16.2848C27.413 18.005 28.5298 19.2731 29.8744 20.0714C32.0445 21.3597 34.2471 21.5801 36.4998 20.4432C38.2487 19.5607 39.5064 20.423 40.1595 22.9072C40.2539 20.0238 39.0944 17.9228 37.2475 17.5109C36.2084 17.2793 35.2491 17.7836 34.2758 18.1966C31.5672 19.3455 29.0503 18.7782 26.7528 16.3354ZM40.252 27.5821C40.605 27.6255 40.9578 27.6723 41.3106 27.7175C40.5133 26.6928 39.5415 26.6116 38.5584 26.6934C37.0613 26.8178 35.9827 28.0809 34.9994 29.5901C34.133 30.9202 33.3502 32.4124 32.0572 32.9468C32.0788 33.0036 32.0845 33.032 32.0905 33.032C32.2644 33.0358 32.4387 33.0478 32.6122 33.0362C34.49 32.9118 36.259 32.3324 37.6663 30.3386C38.1094 29.7107 38.506 29.0132 38.9338 28.3616C39.2906 27.8181 39.7233 27.5169 40.252 27.5821ZM35.8897 24.1774C34.4884 24.3566 33.271 25.2047 32.1277 26.323C31.2476 27.1837 30.3064 27.5909 29.2488 27.3217C29.0627 27.2743 28.8753 27.2389 28.6885 27.1979L28.6821 27.3123C28.7493 27.3629 28.8143 27.4221 28.8843 27.4627C29.0605 27.5647 29.2341 27.6875 29.4171 27.7511C31.4523 28.459 33.4005 28.0963 35.1571 26.4364C36.2642 25.3901 37.4103 25.1919 38.6526 25.4621C38.7781 25.4895 38.903 25.5229 39.0291 25.5401C39.1458 25.5563 39.2678 25.7261 39.4254 25.5423C38.3395 24.3946 37.1697 24.0138 35.8897 24.1774ZM30.8812 17.2181C31.6163 17.2553 32.3482 17.1145 33.1171 16.4462C32.8919 16.4754 32.7963 16.4748 32.7047 16.5016C31.6454 16.8105 30.6946 16.4724 29.8476 15.4927C29.5368 15.1331 29.2209 14.7831 28.9062 14.4308C27.6585 13.0347 26.2277 12.5676 24.6627 12.6073C24.688 12.7199 24.6895 12.7971 24.7167 12.8371C26.4195 15.3569 28.3903 17.0925 30.8812 17.2181ZM43.2053 30.1469C42.1515 28.6178 40.7372 28.4208 39.4286 29.7553C40.2948 29.8123 40.9451 30.2166 41.4724 31.0154C41.659 31.2981 41.8525 31.5755 42.0612 31.8219C42.8586 32.7628 44.2103 32.808 45 31.9351C44.0724 31.4055 44.0724 31.4055 43.2053 30.1469ZM32.7098 41.8571C31.7837 39.335 30.2271 38.766 28.429 38.9352C28.9606 39.1508 29.457 39.4826 29.9125 39.9479C30.331 40.3753 30.6832 40.9046 31.0304 41.4466C31.7182 42.5205 32.7917 43.1796 33.503 42.9568C33.1764 42.6556 32.8863 42.3375 32.7098 41.8571ZM41.3273 27.7695C41.3276 27.7535 41.3279 27.7373 41.3286 27.7205L41.3106 27.7175C41.3142 27.7223 41.318 27.7261 41.3216 27.7309L41.3273 27.7695ZM31.3596 38.5208C31.3474 38.5106 31.3353 38.5005 31.3231 38.4906C31.3243 38.5017 31.3269 38.5125 31.3307 38.5224C31.3332 38.5284 31.3496 38.5216 31.3596 38.5208ZM31.3231 38.4906C31.322 38.4824 31.321 38.4739 31.3195 38.4657L31.3082 38.4613C31.3088 38.4682 31.3105 38.4738 31.311 38.4808L31.3231 38.4906Z" fill="white"/>
</svg>
